# xmcd
#
# Track frame offsets:
#	150
#	54213
#	94652
#	128901
#	219182
#	264292
#
# Disc length: 3897 seconds
#
# Revision: 1
# Processed by: cddbd v1.5.2PL0 Copyright (c) Steve Scherf et al.
# Submitted via: audiograbber 1.83.01
#
DISCID=450f3706
DTITLE=Grateful Dead - 77-12-31 Winterland Arena, San Francisco CA
DYEAR=1900
DGENRE=
TTITLE0=Sugar Magnolia
TTITLE1=Scarlet Begonias
TTITLE2=Fire On The Mountain
TTITLE3=Truckin
TTITLE4=Wharf Rat
TTITLE5=Drums
EXTD=
EXTT0=
EXTT1=
EXTT2=
EXTT3=
EXTT4=
EXTT5=
PLAYORDER=
